<svg xmlns="http://www.w3.org/2000/svg" viewBox="0 0 512 512" width="512" height="512">
  <defs>
    <linearGradient id="bg" x1="0%" y1="0%" x2="100%" y2="100%">
      <stop offset="0%" stop-color="#0f172a"/>
      <stop offset="100%" stop-color="#1e293b"/>
    </linearGradient>
    <linearGradient id="left" x1="0%" y1="0%" x2="0%" y2="100%">
      <stop offset="0%" stop-color="#5b8def"/>
      <stop offset="100%" stop-color="#3b6fd4"/>
    </linearGradient>
    <linearGradient id="right" x1="0%" y1="0%" x2="0%" y2="100%">
      <stop offset="0%" stop-color="#34d399"/>
      <stop offset="100%" stop-color="#10b981"/>
    </linearGradient>
  </defs>
  <rect width="512" height="512" rx="108" fill="url(#bg)"/>

  <!-- Left half: microphone, centered at (128, 232) -->
  <g transform="translate(128, 232)">
    <rect x="-26" y="-58" rx="26" ry="26" width="52" height="92" fill="url(#left)"/>
    <path d="M-40,38 C-40,82 40,82 40,38" stroke="url(#left)" stroke-width="10" fill="none" stroke-linecap="round"/>
    <line x1="0" y1="82" x2="0" y2="108" stroke="url(#left)" stroke-width="10" stroke-linecap="round"/>
    <line x1="-20" y1="108" x2="20" y2="108" stroke="url(#left)" stroke-width="10" stroke-linecap="round"/>
  </g>

  <!-- Center divider -->
  <line x1="256" y1="132" x2="256" y2="380" stroke="#2a3445" stroke-width="3" stroke-linecap="round"/>

  <!-- Right half: subtitle lines, centered at (384, 212) -->
  <g transform="translate(384, 212)">
    <rect x="-64" y="0" rx="4" ry="4" width="128" height="13" fill="url(#right)" opacity="0.95"/>
    <rect x="-44" y="26" rx="4" ry="4" width="88" height="11" fill="url(#right)" opacity="0.7"/>
    <rect x="-28" y="48" rx="4" ry="4" width="56" height="9" fill="url(#right)" opacity="0.45"/>
    <rect x="-52" y="76" rx="4" ry="4" width="104" height="11" fill="url(#right)" opacity="0.6"/>
    <rect x="-32" y="98" rx="4" ry="4" width="64" height="9" fill="url(#right)" opacity="0.35"/>
  </g>
</svg>
